<svg xmlns="http://www.w3.org/2000/svg" aria-hidden="true">
  <symbol id="menu" viewBox="0 0 24 24">
    <path fill="none" stroke="currentColor" stroke-width="2" stroke-linecap="round" d="M5 7h14M5 12h14M5 17h14" />
  </symbol>
  <symbol id="close" viewBox="0 0 24 24">
    <path fill="none" stroke="currentColor" stroke-width="2" stroke-linecap="round" d="M7 7l10 10M17 7L7 17" />
  </symbol>
  <symbol id="home" viewBox="0 0 24 24">
    <path
      fill-rule="evenodd"
      clip-rule="evenodd"
      fill="currentColor"
      d="M11.5201 2.32366C11.1271 2.42866 10.8001 2.66866 6.5761 5.95666C1.7011 9.74966 2.0261 9.46166 2.0231 9.99666C2.0221 10.3097 2.1051 10.5067 2.3331 10.7277C2.5571 10.9457 2.7801 10.9997 3.4471 10.9997H4.0001L4.0021 15.1297C4.0051 19.7347 3.9941 19.5397 4.2811 20.0167C4.4481 20.2937 4.7871 20.6177 5.0711 20.7717C5.5051 21.0067 5.2611 20.9987 12.0001 20.9987C18.7361 20.9987 18.4921 21.0067 18.9311 20.7717C19.1991 20.6287 19.6291 20.1987 19.7721 19.9307C20.0011 19.5027 19.9991 19.5457 19.9991 15.0897L20.0001 10.9997H20.5501C20.8521 10.9997 21.1701 10.9797 21.2561 10.9557C21.406 10.9136 21.544 10.8372 21.6591 10.7324C21.7743 10.6276 21.8634 10.4974 21.9193 10.3521C21.9752 10.2068 21.9965 10.0505 21.9813 9.89557C21.9662 9.74063 21.9151 9.59137 21.8321 9.45966C21.7261 9.29366 13.2781 2.69566 12.9281 2.50666C12.794 2.43616 12.6533 2.37889 12.5081 2.33566C12.2751 2.27366 11.7331 2.26766 11.5201 2.32366ZM15.2041 6.75566L18.3591 9.20966L18.2391 9.36066C17.9871 9.67866 18.0001 9.40766 18.0001 14.4247V18.9997H15.0041L14.9911 16.2297L14.9781 13.4597L14.8781 13.1387C14.7296 12.665 14.4686 12.2343 14.1173 11.8836C13.7661 11.5328 13.335 11.2724 12.8611 11.1247C12.5881 11.0417 12.4581 11.0267 12.0001 11.0267C11.5421 11.0267 11.4121 11.0417 11.1391 11.1247C10.6652 11.2724 10.2342 11.5328 9.88288 11.8836C9.53161 12.2343 9.27057 12.665 9.1221 13.1387L9.0221 13.4597L9.0091 16.2297L8.9961 18.9997H6.0001V14.4457C6.0001 9.46566 6.0101 9.67466 5.7651 9.36566L5.6411 9.20966L8.8111 6.74466C10.5541 5.38866 11.9961 4.28466 12.0141 4.29166C13.0825 5.10642 14.1459 5.92777 15.2041 6.75566ZM12.4971 13.1357C12.7021 13.2557 12.8651 13.4507 12.9431 13.6697C12.9861 13.7887 12.9971 14.3507 12.9981 16.4097L13.0001 18.9997H10.9981L11.0091 16.3497L11.0201 13.6997L11.1311 13.5107C11.2551 13.2997 11.4461 13.1377 11.6701 13.0547C11.8971 12.9697 12.2771 13.0067 12.4971 13.1357Z"
    />
  </symbol>
  <symbol id="group" viewBox="0 0 24 24">
    <path
      fill-rule="evenodd"
      clip-rule="evenodd"
      fill="currentColor"
      d="M11.3579 3.06086C10.7461 3.16326 10.1663 3.40609 9.66421 3.77028C9.16208 4.13448 8.75121 4.61012 8.46386 5.15986C8.25532 5.54374 8.11778 5.96211 8.05786 6.39486C7.98586 6.79498 7.98586 7.20474 8.05786 7.60486C8.15316 8.22425 8.39316 8.81245 8.75838 9.32171C9.1236 9.83097 9.60375 10.2469 10.1599 10.5359C10.3469 10.6319 10.6149 10.7489 10.7549 10.7969C11.0499 10.8969 11.6799 10.9999 11.9999 10.9999C12.3199 10.9999 12.9499 10.8969 13.2449 10.7969C14.2289 10.4619 15.0759 9.73886 15.5359 8.83986C15.7444 8.45597 15.882 8.0376 15.9419 7.60486C16.0139 7.20474 16.0139 6.79498 15.9419 6.39486C15.8466 5.77546 15.6066 5.18726 15.2414 4.678C14.8761 4.16874 14.396 3.75277 13.8399 3.46386C13.456 3.25531 13.0376 3.11777 12.6049 3.05786C12.192 2.98884 11.7704 2.98985 11.3579 3.06086ZM12.4919 5.05986C12.8519 5.15286 13.1179 5.30986 13.4039 5.59586C13.6999 5.89086 13.8519 6.15686 13.9399 6.52886C14.0528 7.00335 13.9929 7.50257 13.7709 7.93686C13.6379 8.19986 13.1959 8.63986 12.9299 8.77486C12.6419 8.92174 12.3232 8.99831 11.9999 8.99831C11.6766 8.99831 11.3579 8.92174 11.0699 8.77486C10.8009 8.63886 10.3609 8.19886 10.2249 7.92986C10.078 7.64185 10.0014 7.32315 10.0014 6.99986C10.0014 6.67656 10.078 6.35786 10.2249 6.06986C10.3619 5.79986 10.8009 5.36086 11.0709 5.22486C11.5101 5.00341 12.0136 4.94494 12.4919 5.05986ZM4.95987 7.06186C4.03287 7.26086 3.25487 8.04586 3.05987 8.97986C2.97456 9.38654 2.99196 9.80808 3.11051 10.2063C3.22906 10.6046 3.44502 10.967 3.73885 11.2609C4.03267 11.5547 4.39511 11.7707 4.79338 11.8892C5.19164 12.0078 5.61318 12.0252 6.01987 11.9399C7.35487 11.6609 8.22187 10.3249 7.93987 8.97986C7.65987 7.63886 6.31187 6.77186 4.95987 7.06186ZM17.9599 7.06186C17.0329 7.26086 16.2549 8.04586 16.0599 8.97986C15.9746 9.38654 15.992 9.80808 16.1105 10.2063C16.2291 10.6046 16.445 10.967 16.7388 11.2609C17.0327 11.5547 17.3951 11.7707 17.7934 11.8892C18.1916 12.0078 18.6132 12.0252 19.0199 11.9399C19.381 11.8615 19.7203 11.7041 20.0134 11.479C20.3065 11.2538 20.546 10.9666 20.7149 10.6379C21.0899 9.87586 21.0899 9.12386 20.7149 8.36186C20.2249 7.36786 19.0709 6.82386 17.9599 7.06186ZM5.72387 9.06186C5.7836 9.09214 5.83647 9.1344 5.87917 9.186C5.92187 9.2376 5.95349 9.29744 5.97207 9.36179C5.99064 9.42614 5.99577 9.49363 5.98713 9.56005C5.9785 9.62647 5.95628 9.6904 5.92186 9.74786C5.87957 9.82252 5.81823 9.88463 5.74409 9.92784C5.66995 9.97105 5.58568 9.99381 5.49987 9.99381C5.41405 9.99381 5.32978 9.97105 5.25564 9.92784C5.1815 9.88463 5.12016 9.82252 5.07787 9.74786C5.04372 9.69287 5.02111 9.63151 5.01138 9.56752C5.00166 9.50353 5.00504 9.43822 5.02131 9.37557C5.03758 9.31292 5.0664 9.25423 5.10604 9.20306C5.14567 9.15188 5.19528 9.10929 5.25186 9.07786C5.32146 9.03204 5.40234 9.0063 5.48562 9.00348C5.56889 9.00066 5.65133 9.02086 5.72387 9.06186ZM18.7239 9.06186C18.8017 9.10726 18.8675 9.17079 18.9155 9.24705C18.9636 9.3233 18.9925 9.41003 18.9999 9.49986C18.9999 9.74786 18.7479 9.99986 18.4999 9.99986C18.2559 9.99986 17.9999 9.74786 17.9999 9.50786C17.9999 9.25686 18.2479 8.99986 18.4919 8.99986C18.5725 9.00495 18.6514 9.02602 18.7239 9.06186ZM11.1999 12.0469C8.69787 12.2609 6.19387 13.7519 5.33487 15.5399C4.46587 17.3469 5.34986 18.9109 7.59486 19.5379C8.93786 19.9129 11.1829 20.0769 13.3799 19.9589C15.9679 19.8199 17.4079 19.3989 18.2829 18.5229C19.4079 17.3989 19.1939 15.7549 17.7299 14.2639C17.1829 13.7079 16.5399 13.2609 15.6999 12.8559C14.3039 12.1809 12.7979 11.9099 11.1999 12.0469ZM3.59487 13.2169C2.57887 13.5189 1.61087 14.2589 1.23787 15.0179C1.04687 15.4039 0.981865 15.7229 1.01687 16.0999C1.08987 16.9019 1.73387 17.5179 2.77987 17.7829C3.19087 17.8869 3.46887 17.8729 3.72387 17.7339C4.54787 17.2859 4.33987 16.0789 3.40387 15.8809C3.26887 15.8519 3.14887 15.8149 3.13887 15.7979C3.10387 15.7419 3.50387 15.4209 3.76387 15.2939C3.90487 15.2259 4.12787 15.1399 4.25987 15.1019C4.84287 14.9359 5.11986 14.6079 5.11986 14.0849C5.12042 13.8888 5.06157 13.6972 4.95107 13.5353C4.84057 13.3734 4.68361 13.2488 4.50087 13.1779C4.30387 13.0959 3.94987 13.1109 3.59487 13.2169ZM19.4899 13.1799C19.3094 13.2525 19.1549 13.3776 19.0462 13.5389C18.9375 13.7002 18.8795 13.8903 18.8799 14.0849C18.8799 14.6079 19.1569 14.9359 19.7399 15.1019C19.8719 15.1399 20.0949 15.2259 20.2359 15.2939C20.4959 15.4209 20.8959 15.7419 20.8609 15.7979C20.8509 15.8149 20.7309 15.8519 20.5959 15.8809C20.3059 15.9419 20.0759 16.1009 19.8999 16.3619C19.7909 16.5229 19.7799 16.5699 19.7799 16.8629C19.7799 17.1529 19.7919 17.2059 19.9009 17.3829C20.1229 17.7419 20.5509 17.9209 20.9799 17.8349C22.1819 17.5919 22.9049 16.9669 22.9829 16.0999C23.0539 15.3169 22.6389 14.5569 21.7919 13.9189C21.0169 13.3339 19.9339 12.9869 19.4899 13.1799ZM13.2149 14.1179C14.8749 14.4499 16.3469 15.3719 16.8649 16.4019C17.1259 16.9229 16.9909 17.1909 16.3309 17.4589C15.4569 17.8139 13.9659 17.9999 11.9999 17.9999C8.98587 17.9999 6.99987 17.5339 6.99987 16.8269C6.99987 16.5419 7.27887 16.0769 7.70187 15.6559C8.51287 14.8479 9.71287 14.2849 11.0999 14.0609C11.6209 13.9769 12.6499 14.0049 13.2149 14.1179Z"
    />
  </symbol>
  <symbol id="users" viewBox="0 0 24 24">
    <path
      fill-rule="evenodd"
      clip-rule="evenodd"
      fill="currentColor"
      d="M11.3579 3.06086C10.7461 3.16326 10.1663 3.40609 9.66421 3.77028C9.16208 4.13448 8.75121 4.61012 8.46386 5.15986C8.25532 5.54374 8.11778 5.96211 8.05786 6.39486C7.98586 6.79498 7.98586 7.20474 8.05786 7.60486C8.15316 8.22425 8.39316 8.81245 8.75838 9.32171C9.1236 9.83097 9.60375 10.2469 10.1599 10.5359C10.3469 10.6319 10.6149 10.7489 10.7549 10.7969C11.0499 10.8969 11.6799 10.9999 11.9999 10.9999C12.3199 10.9999 12.9499 10.8969 13.2449 10.7969C14.2289 10.4619 15.0759 9.73886 15.5359 8.83986C15.7444 8.45597 15.882 8.0376 15.9419 7.60486C16.0139 7.20474 16.0139 6.79498 15.9419 6.39486C15.8466 5.77546 15.6066 5.18726 15.2414 4.678C14.8761 4.16874 14.396 3.75277 13.8399 3.46386C13.456 3.25531 13.0376 3.11777 12.6049 3.05786C12.192 2.98884 11.7704 2.98985 11.3579 3.06086ZM12.4919 5.05986C12.8519 5.15286 13.1179 5.30986 13.4039 5.59586C13.6999 5.89086 13.8519 6.15686 13.9399 6.52886C14.0528 7.00335 13.9929 7.50257 13.7709 7.93686C13.6379 8.19986 13.1959 8.63986 12.9299 8.77486C12.6419 8.92174 12.3232 8.99831 11.9999 8.99831C11.6766 8.99831 11.3579 8.92174 11.0699 8.77486C10.8009 8.63886 10.3609 8.19886 10.2249 7.92986C10.078 7.64185 10.0014 7.32315 10.0014 6.99986C10.0014 6.67656 10.078 6.35786 10.2249 6.06986C10.3619 5.79986 10.8009 5.36086 11.0709 5.22486C11.5101 5.00341 12.0136 4.94494 12.4919 5.05986ZM4.95987 7.06186C4.03287 7.26086 3.25487 8.04586 3.05987 8.97986C2.97456 9.38654 2.99196 9.80808 3.11051 10.2063C3.22906 10.6046 3.44502 10.967 3.73885 11.2609C4.03267 11.5547 4.39511 11.7707 4.79338 11.8892C5.19164 12.0078 5.61318 12.0252 6.01987 11.9399C7.35487 11.6609 8.22187 10.3249 7.93987 8.97986C7.65987 7.63886 6.31187 6.77186 4.95987 7.06186ZM17.9599 7.06186C17.0329 7.26086 16.2549 8.04586 16.0599 8.97986C15.9746 9.38654 15.992 9.80808 16.1105 10.2063C16.2291 10.6046 16.445 10.967 16.7388 11.2609C17.0327 11.5547 17.3951 11.7707 17.7934 11.8892C18.1916 12.0078 18.6132 12.0252 19.0199 11.9399C19.381 11.8615 19.7203 11.7041 20.0134 11.479C20.3065 11.2538 20.546 10.9666 20.7149 10.6379C21.0899 9.87586 21.0899 9.12386 20.7149 8.36186C20.2249 7.36786 19.0709 6.82386 17.9599 7.06186ZM5.72387 9.06186C5.7836 9.09214 5.83647 9.1344 5.87917 9.186C5.92187 9.2376 5.95349 9.29744 5.97207 9.36179C5.99064 9.42614 5.99577 9.49363 5.98713 9.56005C5.9785 9.62647 5.95628 9.6904 5.92186 9.74786C5.87957 9.82252 5.81823 9.88463 5.74409 9.92784C5.66995 9.97105 5.58568 9.99381 5.49987 9.99381C5.41405 9.99381 5.32978 9.97105 5.25564 9.92784C5.1815 9.88463 5.12016 9.82252 5.07787 9.74786C5.04372 9.69287 5.02111 9.63151 5.01138 9.56752C5.00166 9.50353 5.00504 9.43822 5.02131 9.37557C5.03758 9.31292 5.0664 9.25423 5.10604 9.20306C5.14567 9.15188 5.19528 9.10929 5.25186 9.07786C5.32146 9.03204 5.40234 9.0063 5.48562 9.00348C5.56889 9.00066 5.65133 9.02086 5.72387 9.06186ZM18.7239 9.06186C18.8017 9.10726 18.8675 9.17079 18.9155 9.24705C18.9636 9.3233 18.9925 9.41003 18.9999 9.49986C18.9999 9.74786 18.7479 9.99986 18.4999 9.99986C18.2559 9.99986 17.9999 9.74786 17.9999 9.50786C17.9999 9.25686 18.2479 8.99986 18.4919 8.99986C18.5725 9.00495 18.6514 9.02602 18.7239 9.06186ZM11.1999 12.0469C8.69787 12.2609 6.19387 13.7519 5.33487 15.5399C4.46587 17.3469 5.34986 18.9109 7.59486 19.5379C8.93786 19.9129 11.1829 20.0769 13.3799 19.9589C15.9679 19.8199 17.4079 19.3989 18.2829 18.5229C19.4079 17.3989 19.1939 15.7549 17.7299 14.2639C17.1829 13.7079 16.5399 13.2609 15.6999 12.8559C14.3039 12.1809 12.7979 11.9099 11.1999 12.0469ZM3.59487 13.2169C2.57887 13.5189 1.61087 14.2589 1.23787 15.0179C1.04687 15.4039 0.981865 15.7229 1.01687 16.0999C1.08987 16.9019 1.73387 17.5179 2.77987 17.7829C3.19087 17.8869 3.46887 17.8729 3.72387 17.7339C4.54787 17.2859 4.33987 16.0789 3.40387 15.8809C3.26887 15.8519 3.14887 15.8149 3.13887 15.7979C3.10387 15.7419 3.50387 15.4209 3.76387 15.2939C3.90487 15.2259 4.12787 15.1399 4.25987 15.1019C4.84287 14.9359 5.11986 14.6079 5.11986 14.0849C5.12042 13.8888 5.06157 13.6972 4.95107 13.5353C4.84057 13.3734 4.68361 13.2488 4.50087 13.1779C4.30387 13.0959 3.94987 13.1109 3.59487 13.2169ZM19.4899 13.1799C19.3094 13.2525 19.1549 13.3776 19.0462 13.5389C18.9375 13.7002 18.8795 13.8903 18.8799 14.0849C18.8799 14.6079 19.1569 14.9359 19.7399 15.1019C19.8719 15.1399 20.0949 15.2259 20.2359 15.2939C20.4959 15.4209 20.8959 15.7419 20.8609 15.7979C20.8509 15.8149 20.7309 15.8519 20.5959 15.8809C20.3059 15.9419 20.0759 16.1009 19.8999 16.3619C19.7909 16.5229 19.7799 16.5699 19.7799 16.8629C19.7799 17.1529 19.7919 17.2059 19.9009 17.3829C20.1229 17.7419 20.5509 17.9209 20.9799 17.8349C22.1819 17.5919 22.9049 16.9669 22.9829 16.0999C23.0539 15.3169 22.6389 14.5569 21.7919 13.9189C21.0169 13.3339 19.9339 12.9869 19.4899 13.1799ZM13.2149 14.1179C14.8749 14.4499 16.3469 15.3719 16.8649 16.4019C17.1259 16.9229 16.9909 17.1909 16.3309 17.4589C15.4569 17.8139 13.9659 17.9999 11.9999 17.9999C8.98587 17.9999 6.99987 17.5339 6.99987 16.8269C6.99987 16.5419 7.27887 16.0769 7.70187 15.6559C8.51287 14.8479 9.71287 14.2849 11.0999 14.0609C11.6209 13.9769 12.6499 14.0049 13.2149 14.1179Z"
    />
  </symbol>
  <symbol id="calendar" viewBox="0 0 24 24">
    <path
      fill-rule="evenodd"
      clip-rule="evenodd"
      fill="currentColor"
      d="M7.64109 3.0686C7.51355 3.12301 7.39724 3.20066 7.29809 3.2976C7.05009 3.5456 6.99809 3.7396 6.99809 4.4266V4.9996H5.92509C5.32809 4.9996 4.74809 5.0186 4.61509 5.0426C3.84709 5.1836 3.18209 5.8486 3.04109 6.6166C2.98109 6.9496 2.98109 19.0496 3.04109 19.3826C3.18209 20.1506 3.84709 20.8156 4.61509 20.9566C4.94909 21.0176 19.0471 21.0176 19.3811 20.9566C20.1491 20.8156 20.8141 20.1506 20.9551 19.3826C21.0151 19.0496 21.0151 6.9496 20.9551 6.6166C20.8141 5.8486 20.1491 5.1836 19.3811 5.0426C19.2481 5.0186 18.6681 4.9996 18.0711 4.9996H16.9981V4.4266C16.9981 3.7406 16.9461 3.5456 16.6991 3.2986C16.6075 3.20566 16.4984 3.13185 16.3781 3.08147C16.2577 3.0311 16.1286 3.00515 15.9981 3.00515C15.8676 3.00515 15.7385 3.0311 15.6181 3.08147C15.4978 3.13185 15.3887 3.20566 15.2971 3.2986C15.0501 3.5456 14.9981 3.7406 14.9981 4.4266V4.9996H8.99809V4.4266C8.99809 3.7406 8.94609 3.5456 8.69909 3.2986C8.56357 3.16253 8.39166 3.06846 8.20399 3.02766C8.01633 2.98686 7.82088 3.00108 7.64109 3.0686ZM18.9981 7.9996V8.9996H4.99809V6.9996H18.9981V7.9996ZM18.9981 14.9996V18.9996H4.99809V10.9996H18.9981V14.9996ZM7.64109 12.0656C7.28609 12.1966 6.99809 12.6146 6.99809 12.9996C6.99809 13.4066 7.29009 13.8106 7.67709 13.9396C7.90928 14.0211 8.16347 14.0131 8.39013 13.9174C8.61678 13.8216 8.79965 13.6449 8.90309 13.4216C9.13509 12.9226 8.93109 12.3546 8.42509 12.0926C8.24709 12.0006 7.85509 11.9876 7.64109 12.0656ZM11.6411 12.0656C11.2861 12.1966 10.9981 12.6146 10.9981 12.9996C10.9981 13.4066 11.2901 13.8106 11.6771 13.9396C11.9093 14.0211 12.1635 14.0131 12.3901 13.9174C12.6168 13.8216 12.7997 13.6449 12.9031 13.4216C13.1351 12.9226 12.9311 12.3546 12.4251 12.0926C12.2471 12.0006 11.8551 11.9876 11.6411 12.0656ZM15.6411 12.0656C15.2861 12.1966 14.9981 12.6146 14.9981 12.9996C14.9981 13.4066 15.2901 13.8106 15.6771 13.9396C15.9093 14.0211 16.1635 14.0131 16.3901 13.9174C16.6168 13.8216 16.7997 13.6449 16.9031 13.4216C17.1351 12.9226 16.9311 12.3546 16.4251 12.0926C16.2471 12.0006 15.8551 11.9876 15.6411 12.0656ZM7.64109 15.0656C7.28609 15.1966 6.99809 15.6146 6.99809 15.9996C6.99809 16.4066 7.29009 16.8106 7.67709 16.9396C7.90928 17.0211 8.16347 17.0131 8.39013 16.9174C8.61678 16.8216 8.79965 16.6449 8.90309 16.4216C9.13509 15.9226 8.93109 15.3546 8.42509 15.0926C8.24709 15.0006 7.85509 14.9876 7.64109 15.0656ZM11.6411 15.0656C11.2861 15.1966 10.9981 15.6146 10.9981 15.9996C10.9981 16.4066 11.2901 16.8106 11.6771 16.9396C11.9093 17.0211 12.1635 17.0131 12.3901 16.9174C12.6168 16.8216 12.7997 16.6449 12.9031 16.4216C13.1351 15.9226 12.9311 15.3546 12.4251 15.0926C12.2471 15.0006 11.8551 14.9876 11.6411 15.0656ZM15.6411 15.0656C15.2861 15.1966 14.9981 15.6146 14.9981 15.9996C14.9981 16.4066 15.2901 16.8106 15.6771 16.9396C15.9093 17.0211 16.1635 17.0131 16.3901 16.9174C16.6168 16.8216 16.7997 16.6449 16.9031 16.4216C17.1351 15.9226 16.9311 15.3546 16.4251 15.0926C16.2471 15.0006 15.8551 14.9876 15.6411 15.0656Z"
    />
  </symbol>
  <symbol id="task" viewBox="0 0 24 24">
    <path
      fill-rule="evenodd"
      clip-rule="evenodd"
      fill="currentColor"
      d="M11.4318 2.04038C10.8068 2.14038 10.0578 2.45438 9.57984 2.81838L9.34084 3.00038H7.59684C6.51784 3.00038 5.76284 3.01738 5.61584 3.04338C4.84784 3.18438 4.18284 3.84938 4.04184 4.61738C3.98084 4.95138 3.98084 20.0494 4.04184 20.3834C4.18284 21.1514 4.84784 21.8164 5.61584 21.9574C5.94884 22.0174 18.0488 22.0174 18.3818 21.9574C19.1498 21.8164 19.8148 21.1514 19.9558 20.3834C20.0168 20.0494 20.0168 4.95138 19.9558 4.61738C19.8148 3.84938 19.1498 3.18438 18.3818 3.04338C18.2348 3.01738 17.4798 3.00038 16.4008 3.00038H14.6568L14.4178 2.81838C14.0798 2.56038 13.3618 2.21738 12.9588 2.12038C12.5698 2.02638 11.7808 1.98538 11.4318 2.04038ZM12.4068 4.04438C12.8164 4.13525 13.1878 4.35057 13.4701 4.66084C13.7525 4.9711 13.9319 5.36111 13.9838 5.77738L14.0098 6.00038H9.98784L10.0138 5.77738C10.0466 5.50175 10.1361 5.2359 10.2768 4.99657C10.4174 4.75725 10.606 4.54964 10.8308 4.38683C11.0556 4.22402 11.3117 4.10954 11.583 4.0506C11.8542 3.99167 12.1347 3.98955 12.4068 4.04438ZM8.10384 5.09538C8.03484 5.37038 8.00084 5.81338 7.99984 6.44338C7.99884 7.27138 8.03984 7.44338 8.29784 7.70138C8.60884 8.01338 8.45484 8.00038 11.9988 8.00038C15.5428 8.00038 15.3888 8.01338 15.6998 7.70138C15.9578 7.44338 15.9988 7.27138 15.9978 6.44338C15.9968 5.81338 15.9628 5.37038 15.8938 5.09538L15.8698 5.00038H17.9988V20.0004H5.99884V5.00038H8.12784L8.10384 5.09538ZM8.64184 10.0694C8.28984 10.1934 7.99884 10.6144 7.99884 11.0004C7.99884 11.2424 8.11784 11.5214 8.29784 11.7014C8.60884 12.0134 8.45484 12.0004 11.9988 12.0004C15.5428 12.0004 15.3888 12.0134 15.6998 11.7014C15.7928 11.6098 15.8666 11.5007 15.917 11.3804C15.9674 11.26 15.9933 11.1308 15.9933 11.0004C15.9933 10.8699 15.9674 10.7408 15.917 10.6204C15.8666 10.5001 15.7928 10.3909 15.6998 10.2994C15.3878 9.98738 15.5458 10.0004 11.9818 10.0034C9.22484 10.0064 8.79584 10.0144 8.64184 10.0694ZM8.64184 14.0694C8.28984 14.1934 7.99884 14.6144 7.99884 15.0004C7.99884 15.2424 8.11784 15.5214 8.29784 15.7014C8.59184 15.9954 8.62784 16.0004 10.4988 16.0004C12.3698 16.0004 12.4058 15.9954 12.6998 15.7014C12.7928 15.6098 12.8666 15.5007 12.917 15.3804C12.9674 15.26 12.9933 15.1308 12.9933 15.0004C12.9933 14.8699 12.9674 14.7408 12.917 14.6204C12.8666 14.5001 12.7928 14.3909 12.6998 14.2994C12.4048 14.0044 12.3718 14.0004 10.4818 14.0034C9.08384 14.0064 8.79084 14.0164 8.64184 14.0694Z"
    />
  </symbol>
  <symbol id="book" viewBox="0 0 24 24">
    <path
      fill-rule="evenodd"
      clip-rule="evenodd"
      fill="currentColor"
      d="M11.4318 2.04038C10.8068 2.14038 10.0578 2.45438 9.57984 2.81838L9.34084 3.00038H7.59684C6.51784 3.00038 5.76284 3.01738 5.61584 3.04338C4.84784 3.18438 4.18284 3.84938 4.04184 4.61738C3.98084 4.95138 3.98084 20.0494 4.04184 20.3834C4.18284 21.1514 4.84784 21.8164 5.61584 21.9574C5.94884 22.0174 18.0488 22.0174 18.3818 21.9574C19.1498 21.8164 19.8148 21.1514 19.9558 20.3834C20.0168 20.0494 20.0168 4.95138 19.9558 4.61738C19.8148 3.84938 19.1498 3.18438 18.3818 3.04338C18.2348 3.01738 17.4798 3.00038 16.4008 3.00038H14.6568L14.4178 2.81838C14.0798 2.56038 13.3618 2.21738 12.9588 2.12038C12.5698 2.02638 11.7808 1.98538 11.4318 2.04038ZM12.4068 4.04438C12.8164 4.13525 13.1878 4.35057 13.4701 4.66084C13.7525 4.9711 13.9319 5.36111 13.9838 5.77738L14.0098 6.00038H9.98784L10.0138 5.77738C10.0466 5.50175 10.1361 5.2359 10.2768 4.99657C10.4174 4.75725 10.606 4.54964 10.8308 4.38683C11.0556 4.22402 11.3117 4.10954 11.583 4.0506C11.8542 3.99167 12.1347 3.98955 12.4068 4.04438ZM8.10384 5.09538C8.03484 5.37038 8.00084 5.81338 7.99984 6.44338C7.99884 7.27138 8.03984 7.44338 8.29784 7.70138C8.60884 8.01338 8.45484 8.00038 11.9988 8.00038C15.5428 8.00038 15.3888 8.01338 15.6998 7.70138C15.9578 7.44338 15.9988 7.27138 15.9978 6.44338C15.9968 5.81338 15.9628 5.37038 15.8938 5.09538L15.8698 5.00038H17.9988V20.0004H5.99884V5.00038H8.12784L8.10384 5.09538ZM8.64184 10.0694C8.28984 10.1934 7.99884 10.6144 7.99884 11.0004C7.99884 11.2424 8.11784 11.5214 8.29784 11.7014C8.60884 12.0134 8.45484 12.0004 11.9988 12.0004C15.5428 12.0004 15.3888 12.0134 15.6998 11.7014C15.7928 11.6098 15.8666 11.5007 15.917 11.3804C15.9674 11.26 15.9933 11.1308 15.9933 11.0004C15.9933 10.8699 15.9674 10.7408 15.917 10.6204C15.8666 10.5001 15.7928 10.3909 15.6998 10.2994C15.3878 9.98738 15.5458 10.0004 11.9818 10.0034C9.22484 10.0064 8.79584 10.0144 8.64184 10.0694ZM8.64184 14.0694C8.28984 14.1934 7.99884 14.6144 7.99884 15.0004C7.99884 15.2424 8.11784 15.5214 8.29784 15.7014C8.59184 15.9954 8.62784 16.0004 10.4988 16.0004C12.3698 16.0004 12.4058 15.9954 12.6998 15.7014C12.7928 15.6098 12.8666 15.5007 12.917 15.3804C12.9674 15.26 12.9933 15.1308 12.9933 15.0004C12.9933 14.8699 12.9674 14.7408 12.917 14.6204C12.8666 14.5001 12.7928 14.3909 12.6998 14.2994C12.4048 14.0044 12.3718 14.0004 10.4818 14.0034C9.08384 14.0064 8.79084 14.0164 8.64184 14.0694Z"
    />
  </symbol>
  <symbol id="user" viewBox="0 0 24 24">
    <circle cx="12" cy="8" r="4" fill="none" stroke="currentColor" stroke-width="2" />
    <path fill="none" stroke="currentColor" stroke-width="2" d="M6 20v-1a6 6 0 0 1 12 0v1" />
  </symbol>
  <symbol id="settings" viewBox="0 0 24 24">
    <path
      fill-rule="evenodd"
      clip-rule="evenodd"
      fill="currentColor"
      d="M8.70084 2.57602C7.79084 2.80002 5.72784 4.04002 5.34784 4.59002C5.09884 4.95102 5.07384 5.06602 5.06284 5.89502C5.05284 6.70002 5.02584 6.86802 4.82384 7.36902C4.68359 7.71323 4.48236 8.02929 4.22984 8.30202C3.92684 8.63302 3.63184 8.85102 3.12884 9.11602C2.64684 9.36902 2.37284 9.63602 2.24584 9.97702C1.95384 10.756 1.95484 13.246 2.24684 14.027C2.36484 14.343 2.65484 14.637 3.05084 14.841C4.11584 15.391 4.66184 16.02 4.96584 17.047C5.03984 17.296 5.05384 17.455 5.06184 18.103C5.07184 18.931 5.09684 19.046 5.34984 19.412C5.66684 19.871 7.11184 20.798 8.24084 21.265C8.67084 21.443 8.72484 21.456 9.06084 21.458C9.47984 21.46 9.61784 21.414 10.0758 21.121C10.7648 20.679 11.2848 20.515 12.0008 20.515C12.7188 20.515 13.2758 20.693 13.9608 21.14C14.3998 21.427 14.4898 21.457 14.9208 21.457C15.2838 21.457 15.3218 21.448 15.7608 21.266C16.6262 20.9048 17.4404 20.4318 18.1828 19.859C18.5468 19.575 18.6808 19.417 18.8268 19.097C18.9238 18.887 18.9298 18.834 18.9388 18.108C18.9458 17.529 18.9648 17.281 19.0158 17.102C19.3118 16.067 19.8548 15.42 20.8798 14.881C21.3548 14.631 21.6298 14.362 21.7558 14.023C22.0448 13.251 22.0448 10.749 21.7558 9.97702C21.6288 9.63502 21.3498 9.36302 20.8818 9.12302C19.9028 8.62002 19.3498 7.98102 19.0548 7.01202C18.9558 6.68902 18.9458 6.59702 18.9378 5.89502C18.9278 5.06602 18.9028 4.95202 18.6538 4.59002C18.3498 4.15002 16.9258 3.22502 15.8748 2.78502C15.0208 2.42702 14.6148 2.43902 14.0008 2.84002C13.2938 3.30102 12.7188 3.48802 12.0008 3.48802C11.2828 3.48802 10.7078 3.30102 10.0008 2.84002C9.54884 2.54402 9.15484 2.46402 8.70084 2.57602ZM9.42184 4.82002C9.85784 5.06102 10.3188 5.24002 10.8408 5.37202C11.1338 5.44602 11.2938 5.45802 12.0008 5.45802C12.7078 5.45802 12.8678 5.44602 13.1608 5.37202C13.6559 5.2507 14.1329 5.06513 14.5798 4.82002C14.7988 4.69902 14.9958 4.60002 15.0188 4.60002C15.0418 4.60102 15.2588 4.69702 15.5008 4.81402C15.9488 5.03102 16.3898 5.29602 16.7308 5.55302L16.9208 5.69602V5.99002C16.9208 7.97602 17.9028 9.70502 19.5948 10.696C19.9088 10.88 19.9178 10.89 19.9488 11.073C19.9668 11.176 19.9808 11.593 19.9808 12C19.9808 12.407 19.9668 12.824 19.9488 12.927C19.9178 13.11 19.9088 13.12 19.5948 13.304C18.6724 13.8307 17.9309 14.6241 17.4678 15.58C17.1378 16.24 16.9738 16.919 16.9348 17.78C16.9078 18.378 16.9538 18.302 16.3808 18.688C16.0268 18.926 15.1138 19.399 15.0058 19.4C14.9758 19.4 14.8468 19.336 14.7178 19.258C13.0918 18.27 10.9098 18.27 9.28384 19.258C9.15484 19.336 9.02484 19.4 8.99284 19.4C8.87584 19.4 7.88684 18.877 7.50084 18.611L7.10084 18.335L7.07284 17.805C6.99984 16.422 6.60084 15.394 5.75184 14.4C5.38684 13.973 4.71284 13.443 4.24984 13.22C4.09384 13.145 4.08284 13.127 4.05284 12.92C4.01084 12.634 4.01184 11.315 4.05284 11.073C4.08384 10.89 4.09284 10.88 4.40684 10.696C5.78084 9.89102 6.68584 8.61902 6.97884 7.08002C7.01484 6.89302 7.05384 6.50602 7.06684 6.22002C7.09484 5.61802 7.04384 5.69702 7.65884 5.29102C8.02484 5.04902 8.88384 4.60102 8.98284 4.60002C9.00584 4.60002 9.20284 4.69902 9.42184 4.82002ZM11.3588 8.06102C10.7471 8.16342 10.1673 8.40626 9.66519 8.77045C9.16306 9.13465 8.75219 9.61029 8.46484 10.16C8.2563 10.5439 8.11876 10.9623 8.05884 11.395C7.98684 11.7951 7.98684 12.2049 8.05884 12.605C8.28084 14.074 9.32484 15.31 10.7558 15.797C11.0508 15.897 11.6808 16 12.0008 16C12.3208 16 12.9508 15.897 13.2458 15.797C14.2298 15.462 15.0768 14.739 15.5368 13.84C15.7454 13.4561 15.8829 13.0378 15.9428 12.605C16.0148 12.2049 16.0148 11.7951 15.9428 11.395C15.8475 10.7756 15.6075 10.1874 15.2423 9.67817C14.8771 9.16891 14.397 8.75294 13.8408 8.46402C13.457 8.25548 13.0386 8.11794 12.6058 8.05802C12.193 7.989 11.7714 7.99002 11.3588 8.06102ZM12.4928 10.06C12.8528 10.153 13.1188 10.31 13.4048 10.596C13.7008 10.891 13.8528 11.157 13.9408 11.529C14.0538 12.0035 13.9939 12.5027 13.7718 12.937C13.6388 13.2 13.1968 13.64 12.9308 13.775C12.6428 13.9219 12.3241 13.9985 12.0008 13.9985C11.6775 13.9985 11.3588 13.9219 11.0708 13.775C10.8018 13.639 10.3618 13.199 10.2258 12.93C10.079 12.642 10.0024 12.3233 10.0024 12C10.0024 11.6767 10.079 11.358 10.2258 11.07C10.3628 10.8 10.8018 10.361 11.0718 10.225C11.5111 10.0036 12.0146 9.94511 12.4928 10.06Z"
    />
  </symbol>
  <symbol id="bell" viewBox="0 0 24 24">
    <path
      fill-rule="evenodd"
      clip-rule="evenodd"
      fill="currentColor"
      d="M11.5392 2.02328C10.7142 2.10228 10.2492 2.20028 9.61922 2.42728C8.65559 2.77593 7.78045 3.33229 7.05584 4.0569C6.33122 4.78152 5.77487 5.65666 5.42622 6.62028C5.05622 7.65028 5.03322 7.85828 5.00422 10.5273L4.97922 12.7943L4.02722 14.7073C3.09822 16.5753 3.07622 16.6263 3.07822 16.8603C3.08122 17.3343 3.25322 17.6383 3.63922 17.8563L3.85922 17.9803L5.99222 18.0003L8.12522 18.0203L8.21922 18.2883C8.42479 18.8708 8.75968 19.3992 9.19874 19.8337C9.63779 20.2683 10.1696 20.5977 10.7542 20.7973C11.0492 20.8973 11.6792 21.0003 11.9992 21.0003C12.1202 21.0003 12.3922 20.9733 12.6042 20.9423C13.3245 20.8298 14.0006 20.5234 14.56 20.0558C15.1193 19.5883 15.5408 18.9772 15.7792 18.2883L15.8732 18.0203L18.0062 18.0003L20.1392 17.9803L20.3592 17.8563C20.7452 17.6383 20.9172 17.3343 20.9202 16.8603C20.9222 16.6263 20.9002 16.5753 19.9712 14.7073L19.0192 12.7943L18.9942 10.5273C18.9652 7.85828 18.9422 7.65028 18.5722 6.62028C17.7152 4.23828 15.5802 2.47328 13.1012 2.09828C12.7252 2.04128 11.8122 1.99728 11.5392 2.02328ZM12.9992 4.10128C13.9992 4.31928 14.7992 4.75628 15.5212 5.47828C16.1062 6.06328 16.4742 6.64828 16.7312 7.40028C16.9692 8.09928 16.9702 8.10828 16.9962 10.6403C17.0192 12.7803 17.0282 13.0063 17.0992 13.2803C17.1492 13.4763 17.3822 13.9953 17.7682 14.7733C18.0932 15.4293 18.3592 15.9743 18.3592 15.9833C18.3592 15.9923 15.4972 16.0003 11.9992 16.0003C8.50122 16.0003 5.63922 15.9923 5.63922 15.9833C5.63922 15.9743 5.90522 15.4293 6.23022 14.7733C6.61622 13.9953 6.84922 13.4763 6.89922 13.2803C6.97022 13.0063 6.97922 12.7803 7.00222 10.6403C7.02822 8.10828 7.02922 8.09928 7.26722 7.40028C7.52422 6.64828 7.89222 6.06328 8.47722 5.47828C8.92522 5.03028 9.27122 4.77828 9.78422 4.52628C10.2952 4.27428 10.6272 4.17428 11.4392 4.02428C11.6502 3.98528 12.7092 4.03728 12.9992 4.10128ZM13.7192 18.0413C13.7192 18.0633 13.5892 18.2143 13.4292 18.3763C13.1202 18.6893 12.8632 18.8433 12.4912 18.9403C12.0123 19.0561 11.5079 18.9976 11.0682 18.7753C10.8682 18.6743 10.2792 18.1263 10.2792 18.0413C10.2792 18.0143 10.8572 18.0003 11.9992 18.0003C13.1412 18.0003 13.7192 18.0143 13.7192 18.0413Z"
    />
  </symbol>
  <symbol id="chevronRight" viewBox="0 0 24 24">
    <path fill="none" stroke="currentColor" stroke-width="2" stroke-linecap="round" stroke-linejoin="round" d="m10 6 6 6-6 6" />
  </symbol>
  <symbol id="key" viewBox="0 0 24 24">
    <circle cx="8" cy="15" r="4" fill="none" stroke="currentColor" stroke-width="2" />
    <path fill="none" stroke="currentColor" stroke-width="2" stroke-linecap="round" stroke-linejoin="round" d="M11 12 21 2m-3 3 3 3m-6 0 3 3" />
  </symbol>
  <symbol id="link" viewBox="0 0 24 24">
    <path fill="none" stroke="currentColor" stroke-width="2" stroke-linecap="round" stroke-linejoin="round" d="M10 13a5 5 0 0 0 7.07 0l3-3a5 5 0 0 0-7.07-7.07l-1.5 1.5" />
    <path fill="none" stroke="currentColor" stroke-width="2" stroke-linecap="round" stroke-linejoin="round" d="M14 11a5 5 0 0 0-7.07 0l-3 3a5 5 0 0 0 7.07 7.07l1.5-1.5" />
  </symbol>
  <symbol id="userPlus" viewBox="0 0 24 24">
    <circle cx="9" cy="8" r="4" fill="none" stroke="currentColor" stroke-width="2" />
    <path fill="none" stroke="currentColor" stroke-width="2" stroke-linecap="round" d="M3 21v-1a6 6 0 0 1 12 0v1" />
    <path fill="none" stroke="currentColor" stroke-width="2" stroke-linecap="round" d="M19 8v6M16 11h6" />
  </symbol>
  <symbol id="mail" viewBox="0 0 24 24">
    <path
      fill-rule="evenodd"
      clip-rule="evenodd"
      fill="currentColor"
      d="M3.47572 4.07288C2.98672 4.20088 2.54472 4.54288 2.26372 5.01388C1.98472 5.47888 1.99872 5.10888 2.00072 12.0279C2.00272 17.7859 2.00872 18.2799 2.07172 18.5229C2.25172 19.2119 2.85872 19.7949 3.54772 19.9409C3.95472 20.0269 20.0427 20.0269 20.4497 19.9409C20.8207 19.8629 21.0907 19.7089 21.3997 19.4009C21.7077 19.0919 21.8617 18.8219 21.9397 18.4509C22.0257 18.0459 22.0257 5.95388 21.9397 5.54888C21.7937 4.85988 21.2107 4.25288 20.5217 4.07288C20.2777 4.00888 19.6777 4.00488 11.9987 4.00488C4.31972 4.00488 3.71972 4.00888 3.47572 4.07288ZM19.9377 6.07688C19.7937 6.21588 12.0227 12.6799 11.9987 12.6799C11.9747 12.6799 4.20372 6.21588 4.05972 6.07688C3.98172 6.00088 4.09272 5.99988 11.9987 5.99988C19.9047 5.99988 20.0157 6.00088 19.9377 6.07688ZM7.67472 11.6999C10.1277 13.7419 11.2377 14.6409 11.3947 14.7149C11.5877 14.8049 11.6717 14.8199 11.9987 14.8199C12.3257 14.8199 12.4097 14.8049 12.6027 14.7149C12.7597 14.6409 13.8697 13.7419 16.3227 11.6999C18.2457 10.0989 19.8587 8.75188 19.9087 8.70688L19.9987 8.62588V17.9999H3.99872V8.62588L4.08872 8.70688C4.13772 8.75188 5.75172 10.0989 7.67472 11.6999Z"
    />
  </symbol>
  <symbol id="plus" viewBox="0 0 24 24">
    <path fill="none" stroke="currentColor" stroke-width="2" stroke-linecap="round" d="M12 5v14M5 12h14" />
  </symbol>
  <symbol id="compass" viewBox="0 0 24 24">
    <circle cx="12" cy="12" r="9" fill="none" stroke="currentColor" stroke-width="2" />
    <path fill="none" stroke="currentColor" stroke-width="2" stroke-linejoin="round" d="m15.5 8.5-2 5-5 2 2-5z" />
  </symbol>
  <symbol id="copy" viewBox="0 0 24 24">
    <rect x="9" y="9" width="10" height="10" rx="2" fill="none" stroke="currentColor" stroke-width="2" />
    <path fill="none" stroke="currentColor" stroke-width="2" d="M6 15H5a2 2 0 0 1-2-2V5a2 2 0 0 1 2-2h8a2 2 0 0 1 2 2v1" />
  </symbol>
  <symbol id="done" viewBox="0 0 24 24">
    <path
      fill-rule="evenodd"
      clip-rule="evenodd"
      fill="currentColor"
      d="M8.47886 2.0733C8.04886 2.1853 7.56486 2.5263 7.35486 2.8663L7.27186 3.0003L6.50586 3.0023C5.91586 3.0043 5.67786 3.0203 5.47586 3.0733C4.98686 3.2013 4.54486 3.5433 4.26386 4.0143C3.98186 4.4843 3.99886 3.9453 4.00086 12.5283C4.00386 21.1543 3.98286 20.5243 4.27986 21.0173C4.44686 21.2943 4.78586 21.6183 5.06986 21.7723C5.49586 22.0033 5.39886 21.9993 10.4909 21.9993C15.2889 22.0003 15.6429 21.9903 16.2389 21.8393C17.9969 21.3933 19.4049 19.9683 19.8539 18.1803C19.9899 17.6373 19.9989 17.2083 19.9979 10.9923C19.9979 4.2633 20.0059 4.5053 19.7709 4.0713C19.584 3.7529 19.3255 3.48242 19.0159 3.2813C18.6389 3.0543 18.3709 3.0053 17.4919 3.0023L16.7259 3.0003L16.6449 2.8703C16.5239 2.6753 16.2479 2.4223 15.9849 2.2653C15.5399 1.9983 15.5679 2.0003 11.9709 2.0023C9.06286 2.0043 8.71286 2.0113 8.47886 2.0733ZM14.9989 4.5003V5.0003H8.99886V4.0003H14.9989V4.5003ZM7.02986 5.3103C7.09786 5.7443 7.27286 6.0813 7.59586 6.4013C7.90786 6.7093 8.17786 6.8633 8.54786 6.9413C8.94886 7.0263 15.0489 7.0263 15.4499 6.9413C15.8199 6.8633 16.0899 6.7093 16.4019 6.4013C16.7259 6.0803 16.8989 5.7443 16.9659 5.3103L17.0129 5.0003H18.0009L17.9899 11.2903L17.9789 17.5803L17.8849 17.8603C17.7317 18.3343 17.4682 18.7652 17.116 19.1174C16.7637 19.4696 16.3329 19.7332 15.8589 19.8863L15.5789 19.9803L10.7889 19.9913L5.99886 20.0023V5.0003H6.98086L7.02986 5.3103ZM15.2989 9.1163C15.2158 9.13967 15.1354 9.1715 15.0589 9.2113C14.9929 9.2463 13.9669 10.2483 12.7789 11.4373C11.5909 12.6273 10.6019 13.6003 10.5809 13.6003C10.5599 13.6003 10.1819 13.2433 9.74086 12.8073C8.89286 11.9703 8.82086 11.9203 8.45886 11.9203C8.09786 11.9203 7.70186 12.1733 7.55386 12.4983C7.46286 12.7003 7.45586 13.1073 7.54086 13.3113C7.61986 13.5003 9.90986 15.8103 10.1389 15.9313C10.3629 16.0493 10.7959 16.0493 11.0189 15.9303C11.1139 15.8803 12.2359 14.7873 13.7669 13.2533C15.7549 11.2623 16.3749 10.6183 16.4369 10.4803C16.6449 10.0153 16.4359 9.4203 15.9879 9.2053C15.7939 9.1123 15.4729 9.0703 15.2989 9.1163Z"
    />
  </symbol>
  <symbol id="check" viewBox="0 0 24 24">
    <path
      fill-rule="evenodd"
      clip-rule="evenodd"
      fill="currentColor"
      d="M20.2934 5.20407C20.1967 5.2226 20.1026 5.25317 20.0134 5.29507C19.9514 5.32807 17.4884 7.76807 14.5404 10.7171L9.18044 16.0801L6.64044 13.5421C4.69344 11.5971 4.05844 10.9851 3.92044 10.9231C3.40644 10.6911 2.78544 10.9571 2.57944 11.4961C2.49644 11.7151 2.51444 12.0721 2.62044 12.2841C2.70944 12.4631 8.53944 18.2911 8.71844 18.3811C8.79444 18.4191 8.96644 18.4591 9.10044 18.4701C9.58544 18.5091 9.14344 18.9181 15.5474 12.5091C21.9564 6.09407 21.5144 6.57307 21.4704 6.08607C21.4464 5.81807 21.3744 5.66007 21.1974 5.48307C21.082 5.36481 20.9388 5.27733 20.7809 5.2286C20.623 5.17987 20.4554 5.17143 20.2934 5.20407Z"
    />
  </symbol>
  <symbol id="sparkles" viewBox="0 0 24 24">
    <path fill="currentColor" d="M12 3.5 13.6 8l4.4 1.6L13.6 11 12 15.5 10.4 11 6 9.6 10.4 8z" />
    <path fill="currentColor" d="M5.5 13.5 6.4 16l2.5.9-2.5.9-.9 2.5-.9-2.5-2.5-.9 2.5-.9z" />
    <path fill="currentColor" d="M18.5 13 19.3 15.2 21.5 16l-2.2.8-.8 2.2-.8-2.2-2.2-.8 2.2-.8z" />
  </symbol>
  <symbol id="externalLink" viewBox="0 0 24 24">
    <path fill="none" stroke="currentColor" stroke-width="2" stroke-linecap="round" stroke-linejoin="round" d="M14 3h7v7M10 14 21 3M18 13v6a2 2 0 0 1-2 2H5a2 2 0 0 1-2-2V8a2 2 0 0 1 2-2h6" />
  </symbol>
  <symbol id="edit" viewBox="0 0 24 24">
    <path fill="currentColor" fill-rule="evenodd" clip-rule="evenodd" d="M14.8509 2.50112C14.6919 2.53855 14.5376 2.59355 14.3909 2.66512C14.2259 2.75112 13.0119 3.94212 8.75288 8.19712C3.65288 13.2911 3.31688 13.6361 3.20288 13.8811C3.13588 14.0251 3.06288 14.2431 3.03988 14.3661C3.01388 14.5101 3.00288 15.6061 3.00988 17.4451L3.02088 20.3001L3.13188 20.4891C3.25688 20.7021 3.44988 20.8641 3.67088 20.9431C3.79088 20.9861 4.38888 20.9961 6.66088 20.9961C9.82488 20.9951 9.79688 20.9971 10.2509 20.7221C10.4099 20.6261 12.0399 19.0211 15.8529 15.2031C20.9089 10.1441 21.2399 9.80412 21.3559 9.55512C21.4837 9.27969 21.5484 8.97921 21.5453 8.67559C21.5421 8.37197 21.4713 8.07287 21.3379 7.80012C21.2019 7.51012 21.1189 7.42212 18.8489 5.15212C16.5819 2.88512 16.4909 2.79912 16.2009 2.66312C15.7259 2.43912 15.3459 2.39312 14.8509 2.50112ZM18.6809 9.54012L17.8209 10.4001L15.7009 8.28012L13.5809 6.16012L14.4409 5.30012L15.3009 4.44012L17.4209 6.56012L19.5409 8.68012L18.6809 9.54012ZM14.3009 9.72012L16.4209 11.8401L12.8409 15.4201L9.26088 19.0001H5.00088V14.7401L8.57088 11.1701C9.76096 9.97352 10.9576 8.7835 12.1609 7.60012C12.1719 7.60012 13.1349 8.55412 14.3009 9.72012Z" />
  </symbol>
  <symbol id="save" viewBox="0 0 24 24">
    <path fill="none" stroke="currentColor" stroke-width="2" stroke-linejoin="round" d="M5 3h12l2 2v16H5z" />
    <path fill="none" stroke="currentColor" stroke-width="2" stroke-linejoin="round" d="M8 3v6h8V3M8 21v-8h8v8" />
  </symbol>
  <symbol id="filter" viewBox="0 0 24 24">
    <path
      fill-rule="evenodd"
      clip-rule="evenodd"
      fill="currentColor"
      d="M15.4999 3.03999C15.034 3.12309 14.5938 3.31367 14.2143 3.59662C13.8348 3.87957 13.5266 4.24709 13.3139 4.66999L13.1459 4.99999H8.52094C3.30594 4.99999 3.62594 4.98199 3.30694 5.29999C3.21128 5.38977 3.13504 5.49821 3.08292 5.6186C3.0308 5.739 3.00391 5.8688 3.00391 5.99999C3.00391 6.13119 3.0308 6.26099 3.08292 6.38138C3.13504 6.50178 3.21128 6.61021 3.30694 6.69999C3.62594 7.01799 3.30594 6.99999 8.52094 6.99999H13.1459L13.3139 7.32999C13.4998 7.69637 13.7571 8.02183 14.0707 8.28718C14.3843 8.55253 14.7479 8.7524 15.1399 8.87499C15.4129 8.95799 15.5429 8.97299 16.0009 8.97299C16.4589 8.97299 16.5889 8.95799 16.8619 8.87499C17.254 8.7524 17.6176 8.55253 17.9312 8.28718C18.2448 8.02183 18.5021 7.69637 18.6879 7.32999L18.8559 6.99999H19.4809C20.2569 6.99999 20.4399 6.95399 20.6979 6.69699C20.8809 6.51399 21.0009 6.23699 21.0009 5.99999C21.0009 5.76299 20.8809 5.48599 20.6979 5.30299C20.4399 5.04599 20.2569 4.99999 19.4809 4.99999H18.8559L18.6879 4.66999C18.3099 3.92599 17.6319 3.35399 16.8619 3.12899C16.5009 3.02299 15.8329 2.97999 15.4999 3.03999ZM16.5129 5.14699C17.1429 5.53399 17.1549 6.44599 16.5359 6.83899C16.423 6.91061 16.2967 6.95878 16.1648 6.98065C16.0328 7.00252 15.8978 6.99764 15.7678 6.96629C15.6377 6.93495 15.5153 6.87778 15.4078 6.7982C15.3003 6.71861 15.2099 6.61822 15.1419 6.50299C15.0349 6.32899 15.0209 6.27099 15.0209 6.00299C15.0209 5.74399 15.0369 5.67299 15.1319 5.51099C15.2219 5.34432 15.3594 5.20817 15.527 5.11985C15.6946 5.03153 15.8846 4.99503 16.0729 5.01499C16.2291 5.01704 16.3815 5.06277 16.5129 5.14699ZM7.49994 9.03999C7.03395 9.12309 6.59375 9.31367 6.21429 9.59662C5.83483 9.87957 5.52655 10.2471 5.31394 10.67L5.14594 11H4.52094C3.74794 11 3.56094 11.046 3.30694 11.3C3.21128 11.3898 3.13504 11.4982 3.08292 11.6186C3.0308 11.739 3.00391 11.8688 3.00391 12C3.00391 12.1312 3.0308 12.261 3.08292 12.3814C3.13504 12.5018 3.21128 12.6102 3.30694 12.7C3.56094 12.954 3.74794 13 4.52094 13H5.14594L5.31394 13.33C5.49976 13.6964 5.75706 14.0218 6.07067 14.2872C6.38428 14.5525 6.74785 14.7524 7.13994 14.875C7.41294 14.958 7.54294 14.973 8.00094 14.973C8.45894 14.973 8.58894 14.958 8.86194 14.875C9.25403 14.7524 9.6176 14.5525 9.93121 14.2872C10.2448 14.0218 10.5021 13.6964 10.6879 13.33L10.8559 13H15.4809C19.5049 13 20.1329 12.992 20.3109 12.939C20.6889 12.827 21.0009 12.402 21.0009 12C21.0009 11.598 20.6889 11.173 20.3109 11.061C20.1329 11.008 19.5049 11 15.4809 11H10.8559L10.6879 10.67C10.3099 9.92599 9.63194 9.35399 8.86194 9.12899C8.50094 9.02299 7.83294 8.97999 7.49994 9.03999ZM8.51294 11.147C9.14294 11.534 9.15494 12.446 8.53594 12.839C8.42297 12.9106 8.29675 12.9588 8.16478 12.9807C8.03282 13.0025 7.89781 12.9976 7.76777 12.9663C7.63773 12.935 7.51532 12.8778 7.40781 12.7982C7.3003 12.7186 7.20989 12.6182 7.14194 12.503C7.03494 12.329 7.02094 12.271 7.02094 12.003C7.02094 11.744 7.03694 11.673 7.13194 11.511C7.22192 11.3443 7.35944 11.2082 7.52699 11.1199C7.69455 11.0315 7.88459 10.995 8.07294 11.015C8.22906 11.017 8.38148 11.0628 8.51294 11.147ZM15.4999 15.04C15.034 15.1231 14.5938 15.3137 14.2143 15.5966C13.8348 15.8796 13.5266 16.2471 13.3139 16.67L13.1459 17H8.52094C3.30594 17 3.62594 16.982 3.30694 17.3C3.21128 17.3898 3.13504 17.4982 3.08292 17.6186C3.0308 17.739 3.00391 17.8688 3.00391 18C3.00391 18.1312 3.0308 18.261 3.08292 18.3814C3.13504 18.5018 3.21128 18.6102 3.30694 18.7C3.62594 19.018 3.30594 19 8.52094 19H13.1459L13.3139 19.33C13.4998 19.6964 13.7571 20.0218 14.0707 20.2872C14.3843 20.5525 14.7479 20.7524 15.1399 20.875C15.4129 20.958 15.5429 20.973 16.0009 20.973C16.4589 20.973 16.5889 20.958 16.8619 20.875C17.254 20.7524 17.6176 20.5525 17.9312 20.2872C18.2448 20.0218 18.5021 19.6964 18.6879 19.33L18.8559 19H19.4809C20.2569 19 20.4399 18.954 20.6979 18.697C20.8809 18.514 21.0009 18.237 21.0009 18C21.0009 17.763 20.8809 17.486 20.6979 17.303C20.4399 17.046 20.2569 17 19.4809 17H18.8559L18.6879 16.67C18.3099 15.926 17.6319 15.354 16.8619 15.129C16.5009 15.023 15.8329 14.98 15.4999 15.04ZM16.5129 17.147C17.1429 17.534 17.1549 18.446 16.5359 18.839C16.423 18.9106 16.2967 18.9588 16.1648 18.9807C16.0328 19.0025 15.8978 18.9976 15.7678 18.9663C15.6377 18.9349 15.5153 18.8778 15.4078 18.7982C15.3003 18.7186 15.2099 18.6182 15.1419 18.503C15.0349 18.329 15.0209 18.271 15.0209 18.003C15.0209 17.744 15.0369 17.673 15.1319 17.511C15.2219 17.3443 15.3594 17.2082 15.527 17.1199C15.6946 17.0315 15.8846 16.995 16.0729 17.015C16.2291 17.017 16.3815 17.0628 16.5129 17.147Z"
    />
  </symbol>
  <symbol id="google" viewBox="-0.5 0 48 48">
    <path
      fill="#FBBC05"
      d="M9.82727273,24 C9.82727273,22.4757333 10.0804318,21.0144 10.5322727,19.6437333 L2.62345455,13.6042667 C1.08206818,16.7338667 0.213636364,20.2602667 0.213636364,24 C0.213636364,27.7365333 1.081,31.2608 2.62025,34.3882667 L10.5247955,28.3370667 C10.0772273,26.9728 9.82727273,25.5168 9.82727273,24"
    />
    <path
      fill="#EB4335"
      d="M23.7136364,10.1333333 C27.025,10.1333333 30.0159091,11.3066667 32.3659091,13.2266667 L39.2022727,6.4 C35.0363636,2.77333333 29.6954545,0.533333333 23.7136364,0.533333333 C14.4268636,0.533333333 6.44540909,5.84426667 2.62345455,13.6042667 L10.5322727,19.6437333 C12.3545909,14.112 17.5491591,10.1333333 23.7136364,10.1333333"
    />
    <path
      fill="#34A853"
      d="M23.7136364,37.8666667 C17.5491591,37.8666667 12.3545909,33.888 10.5322727,28.3562667 L2.62345455,34.3946667 C6.44540909,42.1557333 14.4268636,47.4666667 23.7136364,47.4666667 C29.4455,47.4666667 34.9177955,45.4314667 39.0249545,41.6181333 L31.5177727,35.8144 C29.3995682,37.1488 26.7323182,37.8666667 23.7136364,37.8666667"
    />
    <path
      fill="#4285F4"
      d="M46.1454545,24 C46.1454545,22.6133333 45.9318182,21.12 45.6113636,19.7333333 L23.7136364,19.7333333 L23.7136364,28.8 L36.3181818,28.8 C35.6879545,31.8912 33.9724545,34.2677333 31.5177727,35.8144 L39.0249545,41.6181333 C43.3393409,37.6138667 46.1454545,31.6490667 46.1454545,24"
    />
  </symbol>
  <symbol id="bot" viewBox="0 0 24 24">
    <path
      fill="none"
      stroke="currentColor"
      stroke-width="2"
      stroke-linecap="round"
      stroke-linejoin="round"
      d="M9 3v2M15 3v2M8 21h8a3 3 0 0 0 3-3v-1H5v1a3 3 0 0 0 3 3Z"
    />
    <rect x="5" y="5" width="14" height="12" rx="3" fill="none" stroke="currentColor" stroke-width="2" />
    <circle cx="9.5" cy="11" r="1" fill="currentColor" />
    <circle cx="14.5" cy="11" r="1" fill="currentColor" />
    <path fill="none" stroke="currentColor" stroke-width="2" stroke-linecap="round" d="M10 15h4" />
  </symbol>
  <symbol id="github" viewBox="0 0 20 20">
    <g transform="translate(-84, -7399)" fill="currentColor">
      <path
        d="M94,7399 C99.523,7399 104,7403.59 104,7409.253 C104,7413.782 101.138,7417.624 97.167,7418.981 C96.66,7419.082 96.48,7418.762 96.48,7418.489 C96.48,7418.151 96.492,7417.047 96.492,7415.675 C96.492,7414.719 96.172,7414.095 95.813,7413.777 C98.04,7413.523 100.38,7412.656 100.38,7408.718 C100.38,7407.598 99.992,7406.684 99.35,7405.966 C99.454,7405.707 99.797,7404.664 99.252,7403.252 C99.252,7403.252 98.414,7402.977 96.505,7404.303 C95.706,7404.076 94.85,7403.962 94,7403.958 C93.15,7403.962 92.295,7404.076 91.497,7404.303 C89.586,7402.977 88.746,7403.252 88.746,7403.252 C88.203,7404.664 88.546,7405.707 88.649,7405.966 C88.01,7406.684 87.619,7407.598 87.619,7408.718 C87.619,7412.646 89.954,7413.526 92.175,7413.785 C91.889,7414.041 91.63,7414.493 91.54,7415.156 C90.97,7415.418 89.522,7415.871 88.63,7414.304 C88.63,7414.304 88.101,7413.319 87.097,7413.247 C87.097,7413.247 86.122,7413.234 87.029,7413.87 C87.029,7413.87 87.684,7414.185 88.139,7415.37 C88.139,7415.37 88.726,7417.2 91.508,7416.58 C91.513,7417.437 91.522,7418.245 91.522,7418.489 C91.522,7418.76 91.338,7419.077 90.839,7418.982 C86.865,7417.627 84,7413.783 84,7409.253 C84,7403.59 88.478,7399 94,7399"
      />
    </g>
  </symbol>
</svg>
