<svg width="133" height="133" viewBox="0 0 133 133" fill="none" xmlns="http://www.w3.org/2000/svg">
<path d="M20 29.1622C20 23.5498 24.5498 19 30.1622 19H54.6149C57.4211 19 59.6959 21.2749 59.6959 24.0811V25.8239C59.6959 28.6301 57.4211 30.905 54.6149 30.905H36.8608C34.0546 30.905 31.7798 33.1799 31.7798 35.9861V58.3784H26.1277C23.9834 58.3784 21.8745 58.9249 20 59.9662V66V72.0338C21.8844 72.8713 23.9236 73.3041 25.9858 73.3041H31.7798V96.1689C31.7798 98.9751 34.0547 101.25 36.8609 101.25H54.6149C57.4211 101.25 59.6959 103.525 59.6959 106.331V107.919C59.6959 110.725 57.4211 113 54.6149 113H30.1622C24.5498 113 20 108.45 20 102.838V72.0338V59.9662V29.1622Z" fill="#3681E6"/>
<path d="M79.0694 19H103.84C109.452 19 114.002 23.5498 114.002 29.1622V59.9662L102.128 58.3784V35.9861C102.128 33.1799 99.8529 30.905 97.0467 30.905H95.9004C96.5204 29.5642 96.7113 28.0646 96.4471 26.6112L96.3934 26.3161C96.2771 25.6762 96.0704 25.0561 95.7795 24.4743C95.0384 22.9921 93.7861 21.8281 92.2538 21.1972L92.1002 21.1339C90.267 20.3791 88.1983 20.4047 86.3819 21.1994C84.9366 21.8317 83.7278 22.9153 82.9451 24.2851L81.6099 26.6216L79.0694 30.905C76.2632 30.905 73.9883 28.6301 73.9883 25.8239V24.0811C73.9883 21.2749 76.2632 19 79.0694 19Z" fill="#3681E6"/>
<path d="M79.0694 113H103.84C109.452 113 114.002 108.45 114.002 102.838V53.6149L102.128 54.8851V95.5525C102.128 98.3587 99.8529 100.634 97.0467 100.634H95.9004C96.5215 102.029 96.7125 103.577 96.4492 105.081L96.3882 105.43C96.2753 106.075 96.0739 106.702 95.7899 107.292C95.0422 108.845 93.746 110.079 92.161 110.757C90.3028 111.552 88.1775 111.531 86.3375 110.695C84.9205 110.051 83.7451 108.964 82.9949 107.601L81.6099 105.083L79.0694 100.634C76.2632 100.634 73.9883 102.908 73.9883 105.715V107.919C73.9883 110.725 76.2632 113 79.0694 113Z" fill="#3681E6"/>
<path d="M67 48.8516C76.4709 48.8516 84.1484 56.5291 84.1484 66C84.1484 75.4709 76.4709 83.1484 67 83.1484C57.5291 83.1484 49.8516 75.4709 49.8516 66C49.8516 56.5291 57.5291 48.8516 67 48.8516ZM67 58.3779C62.7907 58.3779 59.3779 61.7907 59.3779 66C59.3779 70.2093 62.7907 73.6221 67 73.6221C71.2093 73.6221 74.6221 70.2093 74.6221 66C74.6221 61.7907 71.2093 58.3779 67 58.3779Z" fill="#FAFBFD"/>
<path d="M20 66C20 63.1938 22.2749 60.9189 25.0811 60.9189H55.5676V71.0811H25.0811C22.2749 71.0811 20 68.8062 20 66Z" fill="#FAFBFD"/>
<path d="M91.7246 108.235C89.2943 109.638 86.1868 108.805 84.7837 106.375L69.5404 79.973L78.3411 74.8919L93.5844 101.294C94.9875 103.724 94.1548 106.832 91.7246 108.235Z" fill="#FAFBFD"/>
<path d="M91.8145 23.4458C94.2447 24.8489 95.0774 27.9564 93.6743 30.3867L78.4311 56.7887L69.6304 51.7077L84.8736 25.3056C86.2767 22.8753 89.3843 22.0427 91.8145 23.4458Z" fill="#FAFBFD"/>
</svg>
